<?xml version="1.0" encoding="UTF-8" standalone="no"?><!DOCTYPE svg PUBLIC "-//W3C//DTD SVG 1.1//EN" "http://www.w3.org/Graphics/SVG/1.1/DTD/svg11.dtd"><svg width="100%" height="100%" viewBox="0 0 376 295" version="1.1" xmlns="http://www.w3.org/2000/svg" xmlns:xlink="http://www.w3.org/1999/xlink" xml:space="preserve" xmlns:serif="http://www.serif.com/" style="fill-rule:evenodd;clip-rule:evenodd;stroke-linejoin:round;stroke-miterlimit:2;"><g><path d="M375.14,11.465c0,-6.332 -5.133,-11.465 -11.465,-11.465l-352.21,0c-6.332,0 -11.465,5.133 -11.465,11.465l-0,198.118c-0,6.332 5.133,11.465 11.465,11.465l352.21,0c6.332,0 11.465,-5.133 11.465,-11.465l0,-198.118Zm-22.93,11.465l-0,175.188c-0,0 -329.28,0 -329.28,0c0,0 0,-175.188 0,-175.188l329.28,0Z"/><path d="M212.874,230.444c-0,-0.826 -0.669,-1.495 -1.495,-1.495l-47.618,-0c-0.825,-0 -1.495,0.669 -1.495,1.495l0,37.647c0,0.826 0.67,1.495 1.495,1.495l47.618,0c0.826,0 1.495,-0.669 1.495,-1.495l-0,-37.647Z"/><path d="M323.817,282.93c0,-1.199 -0.476,-2.349 -1.324,-3.197c-0.849,-0.848 -1.999,-1.325 -3.198,-1.325c-32.562,0 -230.888,0 -263.45,0c-1.199,0 -2.349,0.477 -3.197,1.325c-0.848,0.848 -1.325,1.998 -1.325,3.197c0,2.346 0,5.203 0,7.548c0,1.199 0.477,2.349 1.325,3.198c0.848,0.848 1.998,1.324 3.197,1.324c32.562,0 230.888,-0 263.45,-0c1.199,0 2.349,-0.476 3.198,-1.324c0.848,-0.849 1.324,-1.999 1.324,-3.198c0,-2.345 0,-5.202 0,-7.548Z"/></g></svg>